<?xml version="1.0" encoding="UTF-8" standalone="no"?>
<svg
   xmlns:dc="http://purl.org/dc/elements/1.1/"
   xmlns:cc="http://creativecommons.org/ns#"
   xmlns:rdf="http://www.w3.org/1999/02/22-rdf-syntax-ns#"
   xmlns:svg="http://www.w3.org/2000/svg"
   xmlns="http://www.w3.org/2000/svg"
   xmlns:sodipodi="http://sodipodi.sourceforge.net/DTD/sodipodi-0.dtd"
   xmlns:inkscape="http://www.inkscape.org/namespaces/inkscape"
   width="239"
   height="89"
   viewBox="0 0 63.235418 23.547916"
   version="1.1"
   id="svg8"
   inkscape:version="1.0.1 (3bc2e813f5, 2020-09-07)"
   sodipodi:docname="logo_gesip.svg">
  <defs
     id="defs2" />
  <sodipodi:namedview
     id="base"
     pagecolor="#ffffff"
     bordercolor="#666666"
     borderopacity="1.0"
     inkscape:pageopacity="0.0"
     inkscape:pageshadow="2"
     inkscape:zoom="3.959798"
     inkscape:cx="118.61934"
     inkscape:cy="48.850541"
     inkscape:document-units="px"
     inkscape:current-layer="g925"
     inkscape:document-rotation="0"
     showgrid="false"
     units="px"
     inkscape:showpageshadow="false"
     inkscape:snap-page="false"
     inkscape:window-width="1920"
     inkscape:window-height="1027"
     inkscape:window-x="-8"
     inkscape:window-y="-8"
     inkscape:window-maximized="1" />
  <metadata
     id="metadata5">
    <rdf:RDF>
      <cc:Work
         rdf:about="">
        <dc:format>image/svg+xml</dc:format>
        <dc:type
           rdf:resource="http://purl.org/dc/dcmitype/StillImage" />
        <dc:title></dc:title>
      </cc:Work>
    </rdf:RDF>
  </metadata>
  <g
     inkscape:label="ESIP (svg)"
     inkscape:groupmode="layer"
     id="g925"
     style="display:inline"
     sodipodi:insensitive="true">
    <g
       aria-label="ESIP"
       id="text923"
       style="font-style:normal;font-variant:normal;font-weight:bold;font-stretch:normal;font-size:21.6958px;line-height:1.25;font-family:'Gentium Basic';-inkscape-font-specification:'Gentium Basic Bold';letter-spacing:0.264583px;fill:#ff0000;fill-opacity:1;stroke:none;stroke-width:0.264583">
      <path
         id="path927"
         style="font-style:normal;font-variant:normal;font-weight:bold;font-stretch:normal;font-size:21.6958px;font-family:'Gentium Basic';-inkscape-font-specification:'Gentium Basic Bold';fill:#000000;stroke-width:0.999999"
         d="m 143.55078,23.527344 c -3.22981,0 -6.00586,0.453777 -8.32812,1.361328 -2.32226,0.907551 -4.22982,2.028648 -5.72461,3.363281 -1.4681,1.334634 -2.5625,2.776044 -3.28321,4.324219 -0.69401,1.521482 -1.04101,2.909507 -1.04101,4.164062 0,1.948565 0.35937,3.63021 1.08008,5.044922 0.7207,1.41471 1.66927,2.669272 2.84375,3.763672 1.20117,1.067707 2.54818,2.016278 4.04296,2.84375 1.52149,0.800781 3.06967,1.574872 4.64454,2.322266 1.60156,0.720703 3.14974,1.453778 4.64453,2.201172 1.52148,0.747394 2.87044,1.589193 4.04492,2.523437 1.20117,0.90755 2.16211,1.960938 2.88281,3.162109 0.7207,1.174476 1.08008,2.576825 1.08008,4.205079 0,1.281249 -0.26693,2.414715 -0.80078,3.402343 -0.50716,0.960935 -1.18685,1.776041 -2.04102,2.44336 -0.85416,0.640622 -1.8418,1.133463 -2.96289,1.480468 -1.12109,0.347004 -2.2832,0.521485 -3.48437,0.521485 -1.36133,0 -2.66927,-0.254559 -3.92383,-0.761719 -1.25456,-0.533853 -2.42904,-1.266928 -3.52344,-2.201172 -1.0944,-0.934244 -2.08203,-2.05534 -2.96289,-3.363281 -0.88086,-1.307941 -1.62825,-2.749353 -2.24219,-4.324219 l -2.84179,-0.201172 c -0.18685,0.667319 -0.347,1.441409 -0.48047,2.322266 -0.10676,0.880859 -0.20118,1.776044 -0.28125,2.683594 -0.0534,0.90755 -0.0925,1.815106 -0.11914,2.722656 0,0.880859 0.0124,1.681643 0.0391,2.402344 0.0534,0.694009 0.1211,1.28125 0.20117,1.761718 0.0801,0.453771 0.18685,0.706374 0.32031,0.759766 0.93425,0.613931 2.01433,1.162112 3.24219,1.642578 1.25456,0.480469 2.52344,0.88086 3.80469,1.201172 1.30794,0.346994 2.57487,0.613922 3.80273,0.800781 1.25456,0.18686 2.36329,0.279297 3.32422,0.279297 2.26888,0 4.32422,-0.240234 6.16602,-0.720703 1.86848,-0.480469 3.53581,-1.121094 5.0039,-1.921875 1.49479,-0.800778 2.79037,-1.735028 3.88477,-2.802734 1.0944,-1.0944 2.00195,-2.24219 2.72266,-3.44336 0.7207,-1.227862 1.25456,-2.4681 1.60156,-3.722656 0.3737,-1.254556 0.56055,-2.482424 0.56055,-3.683594 0,-1.975256 -0.3737,-3.724609 -1.1211,-5.246093 -0.7207,-1.521482 -1.68164,-2.868491 -2.88281,-4.042969 -1.17448,-1.174476 -2.52344,-2.229819 -4.04492,-3.164063 -1.52148,-0.934243 -3.08204,-1.800781 -4.6836,-2.601562 -1.60156,-0.800779 -3.16406,-1.574872 -4.68554,-2.322266 -1.52148,-0.747396 -2.88282,-1.535809 -4.08399,-2.363281 -1.17448,-0.854166 -2.13542,-1.761721 -2.88281,-2.722656 -0.7207,-0.987629 -1.08008,-2.108726 -1.08008,-3.363282 0,-0.747394 0.13346,-1.480469 0.40039,-2.201171 0.29362,-0.747395 0.7474,-1.414715 1.36133,-2.001953 0.61393,-0.587239 1.38802,-1.05534 2.32227,-1.402344 0.96093,-0.347005 2.10872,-0.519532 3.44336,-0.519532 0.74739,10e-7 1.54817,0.106772 2.40234,0.320313 0.85417,0.213541 1.69401,0.572917 2.52148,1.080078 0.85417,0.507161 1.65495,1.188803 2.40235,2.042969 0.77409,0.827473 1.45573,1.868491 2.04297,3.123047 l 2.64257,0.240234 c 0.21355,-0.186848 0.46615,-0.494792 0.75977,-0.921875 0.29362,-0.427082 0.58724,-0.907553 0.88086,-1.441406 0.29362,-0.533853 0.57487,-1.094402 0.8418,-1.681641 0.29362,-0.587238 0.51953,-1.133464 0.67968,-1.640625 0.18684,-0.50716 0.30794,-0.948568 0.36133,-1.322265 0.0801,-0.373697 0.0534,-0.613932 -0.0801,-0.720703 -0.48046,-0.533854 -1.1888,-1.026694 -2.12304,-1.480469 -0.90755,-0.453776 -1.96094,-0.841798 -3.16211,-1.16211 -1.20117,-0.320311 -2.49675,-0.572915 -3.88477,-0.759765 -1.38802,-0.18685 -2.80274,-0.28125 -4.24414,-0.28125 z m 70.82813,0 c -1.76172,0 -3.61785,0.06771 -5.56641,0.201172 -1.92187,0.106771 -3.84375,0.266928 -5.76562,0.480468 -1.89519,0.213542 -3.72266,0.466147 -5.48438,0.759766 -1.76172,0.293619 -3.36328,0.613933 -4.80469,0.960938 l 0.51953,3.683593 c 0.80078,-0.133463 1.65495,-0.266927 2.5625,-0.40039 0.93425,-0.133464 1.90951,-0.266928 2.92383,-0.400391 v 41 c 0,0.3737 -0.4681,0.788412 -1.40234,1.242188 -0.90755,0.427081 -2.26888,0.827474 -4.08399,1.201171 v 2.921875 H 215.5 v -2.921875 c -1.38802,-0.240231 -2.52344,-0.468097 -3.4043,-0.68164 -0.88085,-0.213539 -1.57487,-0.427082 -2.08203,-0.640625 -0.48048,-0.213531 -0.81316,-0.41275 -1,-0.59961 -0.16015,-0.186854 -0.24023,-0.361333 -0.24023,-0.521484 V 27.851562 c 0.58724,-0.02669 1.14778,-0.03906 1.68164,-0.03906 0.56054,-0.02669 1.10677,-0.04102 1.64062,-0.04102 1.92188,0 3.67123,0.254558 5.2461,0.761719 1.57486,0.480468 2.92187,1.213543 4.04297,2.201172 1.14778,0.960936 2.02864,2.162116 2.64257,3.603516 0.64063,1.441404 0.96094,3.110679 0.96094,5.005859 0,1.895179 -0.26693,3.52344 -0.80078,4.884766 -0.53385,1.361328 -1.24024,2.482424 -2.12109,3.363281 -0.85417,0.880859 -1.8418,1.533856 -2.96289,1.960937 -1.1211,0.400391 -2.25652,0.601563 -3.4043,0.601563 -0.93425,0 -1.82748,-0.0677 -2.68164,-0.201172 -0.82747,-0.160156 -1.78841,-0.492838 -2.88281,-1 l 1.24023,4.203125 c 0.90755,0.400388 1.94857,0.708332 3.12305,0.921875 1.17447,0.18686 2.37565,0.279297 3.60351,0.279297 1.17448,0 2.40235,-0.145832 3.6836,-0.439453 1.30794,-0.32031 2.58919,-0.78841 3.84375,-1.402344 1.28124,-0.613931 2.48242,-1.388024 3.60351,-2.322266 1.14779,-0.934243 2.14974,-2.014324 3.00391,-3.242187 0.88086,-1.227863 1.57487,-2.615888 2.08203,-4.164063 0.50716,-1.548175 0.75976,-3.244143 0.75976,-5.085937 10e-6,-2.29557 -0.49284,-4.324222 -1.48046,-6.085938 -0.98763,-1.761716 -2.38998,-3.242189 -4.20508,-4.443359 -1.8151,-1.20117 -4.00391,-2.108725 -6.56641,-2.722656 -2.5358,-0.613932 -5.35091,-0.921875 -8.44726,-0.921875 z M 78.328125,24.728516 v 2.923828 c 1.921872,0.373697 3.309897,0.800782 4.164063,1.28125 0.880859,0.480468 1.322265,0.88086 1.322265,1.201172 V 69.8125 c 0,0.3737 -0.4681,0.788412 -1.402344,1.242188 -0.90755,0.427081 -2.268881,0.827474 -4.083984,1.201171 v 2.921875 h 37.837895 c 0.10675,-0.40039 0.2259,-1.041018 0.35937,-1.921875 0.16016,-0.880859 0.32032,-1.880862 0.48047,-3.001953 0.16015,-1.147784 0.30794,-2.348959 0.44141,-3.603515 0.13344,-1.281248 0.25259,-2.496747 0.35937,-3.644532 l -2.92187,-1.041015 c -0.56055,1.574866 -1.1211,2.897137 -1.68165,3.964844 -0.53385,1.067706 -1.13541,1.934244 -1.80273,2.601562 -0.66732,0.640622 -1.44141,1.108725 -2.32227,1.402344 -0.85416,0.293621 -1.89518,0.439453 -3.12304,0.439453 h -3.96289 c -1.76172,0 -3.176437,-0.0534 -4.244143,-0.160156 C 96.68034,70.07943 95.852863,69.906903 95.265625,69.693359 94.678372,69.453125 94.29035,69.1862 94.103516,68.892578 93.916656,68.572268 93.824219,68.210937 93.824219,67.810547 V 49.994141 h 5.644531 c 1.12109,0 2.08203,0.03907 2.88281,0.11914 0.82747,0.08007 1.53581,0.213531 2.12305,0.400391 0.61393,0.186847 1.14779,0.414713 1.60156,0.68164 0.48047,0.266926 0.91993,0.59961 1.32031,1 0.29363,-0.21354 0.60157,-0.519531 0.92188,-0.919921 0.34701,-0.427082 0.67969,-0.88086 1,-1.361329 0.347,-0.480468 0.66732,-0.96094 0.96094,-1.441406 0.32031,-0.507162 0.58723,-0.948568 0.80078,-1.322265 L 109.75977,45.75 H 93.824219 V 29.533203 h 13.453121 c 0.98763,0 1.7474,0.65495 2.28125,1.962891 0.53386,1.281248 0.86849,3.162113 1.00196,5.644531 h 3.00195 c 0.16016,-0.507161 0.32032,-1.240236 0.48047,-2.201172 0.18685,-0.987628 0.36133,-2.028647 0.52148,-3.123047 0.16017,-1.094399 0.29363,-2.162111 0.40039,-3.203125 0.10676,-1.041014 0.18685,-1.909506 0.24024,-2.603515 l -1.60156,-1.28125 z m 87.923825,0 v 2.923828 c 1.92188,0.373697 3.3099,0.800782 4.16407,1.28125 0.88085,0.480468 1.32226,0.88086 1.32226,1.201172 V 69.8125 c 0,0.3737 -0.4681,0.788412 -1.40234,1.242188 -0.90756,0.427081 -2.26889,0.827474 -4.08399,1.201171 v 2.921875 h 21.02149 v -2.921875 c -1.92187,-0.373697 -3.32422,-0.788412 -4.20508,-1.242187 -0.88086,-0.480469 -1.32031,-0.88086 -1.32031,-1.201172 V 30.134766 c 0,-0.373698 0.46615,-0.788413 1.40039,-1.242188 0.93424,-0.453775 2.30989,-0.866537 4.125,-1.240234 v -2.923828 z"
         transform="scale(0.26458333)" />
    </g>
  </g>
  <g
     inkscape:groupmode="layer"
     id="layer3"
     inkscape:label="G (svg)"
     sodipodi:insensitive="true">
    <path
       style="opacity:1;fill:#02a2eb;fill-opacity:1;stroke:none;stroke-width:0.264583px;stroke-linecap:butt;stroke-linejoin:miter;stroke-opacity:1"
       d="m 17.349679,4.5889107 c 1.205345,0.576475 2.344594,0.954665 2.929316,-0.330729 0.416605,-1.381604 -0.243581,-2.224812 -1.842634,-2.598586 -4.506309,-0.182068 -8.5152231,1.851953 -11.8117561,4.819196 -2.3408981,2.107065 -5.78217504,6.3283113 -4.985748,9.7615473 0.633251,2.729822 3.092148,3.985979 6.166924,3.845596 2.5306791,-0.115542 4.8103701,-0.906915 6.8980651,-2.598586 -0.362284,1.243353 -1.204715,2.291385 -1.086682,3.732513 0.120008,1.46524 2.083191,1.518099 2.645834,1.086683 0.387537,-0.297151 0.933488,-1.03582 0.316891,-1.964313 0.37327,-2.302983 0.294722,-2.131103 2.740327,-7.354323 0.402713,-0.860098 -0.740902,-1.827193 -1.653645,-1.889881 -0.586077,-0.04025 -1.860383,0.0022 -1.937128,0.833251 -0.07377,0.445951 0.185372,1.52205 -0.206189,1.920915 -1.609534,1.639559 -4.189789,3.898499 -6.8670311,3.729648 -8.93713504,-0.563653 0.551939,-9.8645563 1.5591521,-10.5360863 1.427267,-0.95159 4.392338,-3.019453 7.134304,-2.456845 z"
       id="path28"
       sodipodi:nodetypes="cccssscsscsscsssc" />
  </g>
</svg>
