<?xml version="1.0" encoding="UTF-8" standalone="no"?>
<svg
   xmlns:dc="http://purl.org/dc/elements/1.1/"
   xmlns:cc="http://creativecommons.org/ns#"
   xmlns:rdf="http://www.w3.org/1999/02/22-rdf-syntax-ns#"
   xmlns:svg="http://www.w3.org/2000/svg"
   xmlns="http://www.w3.org/2000/svg"
   xmlns:sodipodi="http://sodipodi.sourceforge.net/DTD/sodipodi-0.dtd"
   xmlns:inkscape="http://www.inkscape.org/namespaces/inkscape"
   width="80"
   height="80"
   viewBox="0 0 21.166668 21.166666"
   version="1.1"
   id="svg8"
   inkscape:version="1.0.1 (3bc2e813f5, 2020-09-07)"
   sodipodi:docname="logo-small.svg">
  <defs
     id="defs2" />
  <sodipodi:namedview
     id="base"
     pagecolor="#ffffff"
     bordercolor="#666666"
     borderopacity="1.0"
     inkscape:pageopacity="0.0"
     inkscape:pageshadow="2"
     inkscape:zoom="3.959798"
     inkscape:cx="121.07544"
     inkscape:cy="42.620797"
     inkscape:document-units="px"
     inkscape:current-layer="layer3"
     inkscape:document-rotation="0"
     showgrid="false"
     units="px"
     inkscape:showpageshadow="false"
     inkscape:snap-page="false"
     inkscape:window-width="1920"
     inkscape:window-height="1027"
     inkscape:window-x="-8"
     inkscape:window-y="-8"
     inkscape:window-maximized="1"
     fit-margin-top="0"
     fit-margin-left="0"
     fit-margin-right="0"
     fit-margin-bottom="0"
     inkscape:snap-to-guides="true"
     inkscape:snap-grids="true">
    <inkscape:grid
       type="xygrid"
       id="grid37" />
  </sodipodi:namedview>
  <metadata
     id="metadata5">
    <rdf:RDF>
      <cc:Work
         rdf:about="">
        <dc:format>image/svg+xml</dc:format>
        <dc:type
           rdf:resource="http://purl.org/dc/dcmitype/StillImage" />
        <dc:title></dc:title>
      </cc:Work>
    </rdf:RDF>
  </metadata>
  <g
     inkscape:label="ESIP (svg)"
     inkscape:groupmode="layer"
     id="g925"
     style="display:inline"
     transform="translate(-1.5217208,-1.6482865)" />
  <g
     inkscape:groupmode="layer"
     id="layer3"
     inkscape:label="G (svg)"
     transform="translate(-1.5217208,-1.6482865)">
    <path
       style="opacity:1;fill:#02a2eb;fill-opacity:1;stroke:none;stroke-width:0.245597px;stroke-linecap:butt;stroke-linejoin:miter;stroke-opacity:1"
       d="m 18.035008,5.26393 c 1.118852,0.5351084 2.176351,0.8861603 2.719115,-0.3069966 0.38671,-1.282463 -0.226102,-2.0651642 -1.71041,-2.412117 -4.182947,-0.1690032 -7.90419,1.7190609 -10.9641715,4.4733808 -2.1729206,1.9558661 -5.367259,5.8742068 -4.6279817,9.0610798 0.5878103,2.533936 2.870262,3.699954 5.7243996,3.569645 2.3490836,-0.107254 4.4651886,-0.841837 6.4030756,-2.412117 -0.336288,1.154132 -1.118268,2.12696 -1.008705,3.464676 0.111397,1.360097 1.933707,1.409163 2.455975,1.008705 0.359728,-0.275828 0.866503,-0.961493 0.294152,-1.823359 0.346485,-2.137726 0.273573,-1.978179 2.543686,-6.826592 0.373816,-0.798379 -0.687736,-1.696078 -1.534982,-1.754268 -0.544022,-0.03736 -1.726886,0.0021 -1.798124,0.773459 -0.06848,0.413951 0.17207,1.412832 -0.191394,1.783075 -1.494037,1.521908 -3.889138,3.618751 -6.3742675,3.462016 C 1.6695492,16.801311 10.477709,8.1678195 11.412647,7.5444771 12.737496,6.6611711 15.489799,4.7416936 18.035008,5.26393 Z"
       id="path28"
       sodipodi:nodetypes="cccssscsscsscsssc" />
  </g>
</svg>
