<?xml version="1.0" encoding="UTF-8" standalone="no"?>
<svg
   xmlns:dc="http://purl.org/dc/elements/1.1/"
   xmlns:cc="http://creativecommons.org/ns#"
   xmlns:rdf="http://www.w3.org/1999/02/22-rdf-syntax-ns#"
   xmlns:svg="http://www.w3.org/2000/svg"
   xmlns="http://www.w3.org/2000/svg"
   xmlns:sodipodi="http://sodipodi.sourceforge.net/DTD/sodipodi-0.dtd"
   xmlns:inkscape="http://www.inkscape.org/namespaces/inkscape"
   height="64px"
   style="shape-rendering:geometricPrecision; text-rendering:geometricPrecision; image-rendering:optimizeQuality; fill-rule:evenodd; clip-rule:evenodd"
   version="1.1"
   viewBox="0 0 64 64"
   width="64px"
   xml:space="preserve"
   id="svg14"
   sodipodi:docname="meteo-non-communique.svg"
   inkscape:version="1.0.1 (3bc2e813f5, 2020-09-07)"
   inkscape:export-filename="C:\Users\a788622\Gitlab\gesip\app\public\assets\img\meteo-non-communique.png"
   inkscape:export-xdpi="96"
   inkscape:export-ydpi="96"><metadata
     id="metadata18"><rdf:RDF><cc:Work
         rdf:about=""><dc:format>image/svg+xml</dc:format><dc:type
           rdf:resource="http://purl.org/dc/dcmitype/StillImage" /><dc:title></dc:title></cc:Work></rdf:RDF></metadata><sodipodi:namedview
     pagecolor="#ffffff"
     bordercolor="#666666"
     borderopacity="1"
     objecttolerance="10"
     gridtolerance="10"
     guidetolerance="10"
     inkscape:pageopacity="0"
     inkscape:pageshadow="2"
     inkscape:window-width="1920"
     inkscape:window-height="1027"
     id="namedview16"
     showgrid="false"
     inkscape:snap-page="false"
     inkscape:zoom="9.5017474"
     inkscape:cx="55.609324"
     inkscape:cy="30.149985"
     inkscape:window-x="-8"
     inkscape:window-y="-8"
     inkscape:window-maximized="1"
     inkscape:current-layer="text22" /><defs
     id="defs4"><style
       type="text/css"
       id="style2">
   <![CDATA[
    .fil2 {fill:#E62129}
    .fil0 {fill:#0E6096}
    .fil1 {fill:#1AB5ED}
   ]]>
  </style></defs><g
     aria-label="N.C."
     id="text22"
     style="font-size:28px;line-height:1.25;font-family:'Sofia Handwritten';-inkscape-font-specification:'Sofia Handwritten'"><g
       aria-label="N.C."
       id="text867"
       style="font-size:28px;line-height:1.25;font-family:'Sofia Handwritten';-inkscape-font-specification:'Sofia Handwritten'"><path
         id="path869"
         style="font-style:normal;font-variant:normal;font-weight:normal;font-stretch:normal;font-size:28px;font-family:'+Arial';-inkscape-font-specification:'+Arial'"
         d="M 44.373047 21.412109 C 41.283203 21.412109 38.849609 22.360026 37.072266 24.255859 C 35.294922 26.142578 34.40625 28.726562 34.40625 32.007812 C 34.40625 35.279948 35.294922 37.861979 37.072266 39.757812 C 38.849609 41.644531 41.283203 42.587891 44.373047 42.587891 C 45.576172 42.587891 46.715494 42.425781 47.791016 42.097656 C 48.875651 41.769531 49.901042 41.275391 50.867188 40.619141 L 50.867188 37.736328 C 49.9375 38.602213 48.94401 39.249349 47.886719 39.677734 C 46.838541 40.10612 45.722005 40.320312 44.537109 40.320312 C 42.203776 40.320312 40.417318 39.607422 39.177734 38.185547 C 37.938151 36.754558 37.318359 34.696615 37.318359 32.007812 C 37.318359 29.309896 37.938151 27.248047 39.177734 25.826172 C 40.417318 24.395183 42.203776 23.679688 44.537109 23.679688 C 45.722005 23.679688 46.838541 23.89388 47.886719 24.322266 C 48.94401 24.750651 49.9375 25.397787 50.867188 26.263672 L 50.867188 23.351562 C 49.919271 22.704427 48.902995 22.221354 47.818359 21.902344 C 46.742839 21.574219 45.594401 21.412109 44.373047 21.412109 z M 5.7363281 21.779297 L 5.7363281 42.193359 L 8.4160156 42.193359 L 8.4160156 25.117188 L 17.466797 42.193359 L 21.185547 42.193359 L 21.185547 21.779297 L 18.505859 21.779297 L 18.505859 38.855469 L 9.4550781 21.779297 L 5.7363281 21.779297 z M 26.927734 38.720703 L 26.927734 42.193359 L 29.8125 42.193359 L 29.8125 38.720703 L 26.927734 38.720703 z M 55.378906 38.720703 L 55.378906 42.193359 L 58.263672 42.193359 L 58.263672 38.720703 L 55.378906 38.720703 z " /></g></g></svg>
